<svg id="surface1" xmlns="http://www.w3.org/2000/svg" width="151.019" height="166" viewBox="0 0 151.019 166">
  <path id="Path_199" data-name="Path 199" d="M113.135,71.86V40.445a3.637,3.637,0,0,0-1-2.387L76.911,1.073A3.511,3.511,0,0,0,74.386,0H18.544A18.6,18.6,0,0,0,0,18.717V124.31a18.487,18.487,0,0,0,18.544,18.579H62.622A47.579,47.579,0,1,0,113.135,71.86ZM77.846,12.144l23.63,24.875H86.149a8.356,8.356,0,0,1-8.3-8.337Zm-59.3,123.825A11.591,11.591,0,0,1,6.92,124.31V18.717A11.687,11.687,0,0,1,18.544,6.92H70.925V28.682A15.253,15.253,0,0,0,86.149,43.939h20.066V70.96c-1.037-.034-1.868-.138-2.768-.138a48.275,48.275,0,0,0-31.553,11.9H27.955a3.459,3.459,0,1,0,0,6.919h37.5a55.047,55.047,0,0,0-6.089,10.726H27.955a3.46,3.46,0,0,0,0,6.92H57.121A47.482,47.482,0,0,0,59.2,136H18.544Zm84.869,23.146a40.653,40.653,0,1,1,40.652-40.653A40.695,40.695,0,0,1,103.413,159.116Zm0,0" fill="#fff"/>
  <path id="Path_200" data-name="Path 200" d="M79.011,208.6h35.047a3.46,3.46,0,1,0,0-6.92H79.011a3.46,3.46,0,1,0,0,6.92Zm0,0" transform="translate(-51.056 -136.294)" fill="#fff"/>
  <path id="Path_201" data-name="Path 201" d="M287.143,309.125l-14.219,15.327v-37.78a3.46,3.46,0,1,0-6.92,0v37.78L251.68,309.125a3.491,3.491,0,0,0-4.913-.172,3.447,3.447,0,0,0-.172,4.879l20.24,21.762a3.434,3.434,0,0,0,5.051,0l20.275-21.762a3.44,3.44,0,1,0-5.018-4.706Zm0,0" transform="translate(-166.016 -191.389)" fill="#fff"/>
</svg>
