<svg width="47.886" height="91.808" viewBox="0 0 47.886 91.808">
  <g id="Scroll" transform="translate(-210.557 -769.736)">
    <g id="Path_177" data-name="Path 177" transform="translate(210.557 769.736)" fill="none">
      <path d="M23.943,0C37.167,0,47.886,9.6,47.886,21.447V70.361c0,11.845-10.72,21.447-23.943,21.447S0,82.206,0,70.361V21.447C0,9.6,10.72,0,23.943,0Z" stroke="none"/>
      <path d="M 23.9432373046875 6.000007629394531 C 14.04930877685547 6.000007629394531 6 12.92951202392578 6 21.447021484375 L 6 70.36128234863281 C 6 78.8787841796875 14.04930877685547 85.80829620361328 23.9432373046875 85.80829620361328 C 33.83716583251953 85.80829620361328 41.886474609375 78.8787841796875 41.886474609375 70.36128234863281 L 41.886474609375 64.96711730957031 L 41.886474609375 21.447021484375 C 41.886474609375 12.92951202392578 33.83716583251953 6.000007629394531 23.9432373046875 6.000007629394531 M 23.9432373046875 7.62939453125e-06 C 37.16672897338867 7.62939453125e-06 47.886474609375 9.602149963378906 47.886474609375 21.447021484375 L 47.886474609375 64.96711730957031 L 47.886474609375 70.36128234863281 C 47.886474609375 82.20615386962891 37.16672897338867 91.80829620361328 23.9432373046875 91.80829620361328 C 10.71974563598633 91.80829620361328 0 82.20615386962891 0 70.36128234863281 L 0 21.447021484375 C 0 9.602149963378906 10.71974563598633 7.62939453125e-06 23.9432373046875 7.62939453125e-06 Z" stroke="none" fill="#fff"/>
    </g>
    <g id="Ellipse_7" data-name="Ellipse 7" transform="translate(219 778)" fill="#fff" stroke="#707070" stroke-width="1">
      <circle cx="15" cy="15" r="15" stroke="none"/>
      <circle cx="15" cy="15" r="14.5" fill="none"/>
    </g>
  </g>
</svg>
