<svg xmlns="http://www.w3.org/2000/svg" xmlns:xlink="http://www.w3.org/1999/xlink" width="214.812" height="214.813" viewBox="0 0 214.812 214.813">
  <defs>
    <linearGradient id="linear-gradient" x1="0.5" y1="-0.531" x2="0.5" y2="3.646" gradientUnits="objectBoundingBox">
      <stop offset="0" stop-color="#7fffd6"/>
      <stop offset="1" stop-color="#0269e3"/>
    </linearGradient>
    <linearGradient id="linear-gradient-4" x1="0.5" y1="-1.531" x2="0.5" y2="2.646" xlink:href="#linear-gradient"/>
    <linearGradient id="linear-gradient-7" x1="0.5" y1="-2.531" x2="0.5" y2="1.646" xlink:href="#linear-gradient"/>
  </defs>
  <g id="Suduko" transform="translate(4.452 4.452)">
    <g id="Group_5" data-name="Group 5" transform="translate(0 0)">
      <path id="Rectangle_7" data-name="Rectangle 7" d="M53.964,0H68.636a0,0,0,0,1,0,0V68.636a0,0,0,0,1,0,0H0a0,0,0,0,1,0,0V53.964A53.964,53.964,0,0,1,53.964,0Z" stroke="#fff" stroke-miterlimit="10" stroke-width="8.904" fill="url(#linear-gradient)"/>
      <rect id="Rectangle_8" data-name="Rectangle 8" width="68.636" height="68.636" transform="translate(68.636)" stroke="#fff" stroke-miterlimit="10" stroke-width="8.904" fill="url(#linear-gradient)"/>
      <path id="Rectangle_9" data-name="Rectangle 9" d="M0,0H14.672A53.964,53.964,0,0,1,68.636,53.964V68.636a0,0,0,0,1,0,0H0a0,0,0,0,1,0,0V0A0,0,0,0,1,0,0Z" transform="translate(137.272)" stroke="#fff" stroke-miterlimit="10" stroke-width="8.904" fill="url(#linear-gradient)"/>
      <rect id="Rectangle_10" data-name="Rectangle 10" width="68.636" height="68.636" transform="translate(0 68.636)" stroke="#fff" stroke-miterlimit="10" stroke-width="8.904" fill="url(#linear-gradient-4)"/>
      <rect id="Rectangle_11" data-name="Rectangle 11" width="68.636" height="68.636" transform="translate(68.636 68.636)" stroke="#fff" stroke-miterlimit="10" stroke-width="8.904" fill="url(#linear-gradient-4)"/>
      <rect id="Rectangle_12" data-name="Rectangle 12" width="68.636" height="68.636" transform="translate(137.272 68.636)" stroke="#fff" stroke-miterlimit="10" stroke-width="8.904" fill="url(#linear-gradient-4)"/>
      <path id="Rectangle_13" data-name="Rectangle 13" d="M0,0H68.636a0,0,0,0,1,0,0V68.636a0,0,0,0,1,0,0H53.964A53.964,53.964,0,0,1,0,14.672V0A0,0,0,0,1,0,0Z" transform="translate(0 137.272)" stroke="#fff" stroke-miterlimit="10" stroke-width="8.904" fill="url(#linear-gradient-7)"/>
      <rect id="Rectangle_14" data-name="Rectangle 14" width="68.636" height="68.636" transform="translate(68.636 137.272)" stroke="#fff" stroke-miterlimit="10" stroke-width="8.904" fill="url(#linear-gradient-7)"/>
      <path id="Rectangle_15" data-name="Rectangle 15" d="M0,0H68.636a0,0,0,0,1,0,0V14.672A53.964,53.964,0,0,1,14.672,68.636H0a0,0,0,0,1,0,0V0A0,0,0,0,1,0,0Z" transform="translate(137.272 137.272)" stroke="#fff" stroke-miterlimit="10" stroke-width="8.904" fill="url(#linear-gradient-7)"/>
    </g>
    <g id="Group_6" data-name="Group 6" transform="translate(91.63 13.67)">
      <path id="Path_180" data-name="Path 180" d="M179.833,169.415h21.2v4.767H184.992v10.291a13.537,13.537,0,0,1,2.426-.659,14.407,14.407,0,0,1,2.454-.21q6.5,0,10.319,3.841t3.814,10.4q0,6.619-4,10.431t-10.922,3.814a38.266,38.266,0,0,1-6.1-.448,22.616,22.616,0,0,1-4.949-1.346v-5.75a23.251,23.251,0,0,0,5.188,2.09,20.822,20.822,0,0,0,5.328.687q4.682,0,7.22-2.467t2.538-7.011a9.182,9.182,0,0,0-2.621-6.982,10.171,10.171,0,0,0-7.305-2.5,18.929,18.929,0,0,0-4.431.518,17.616,17.616,0,0,0-4.122,1.557Z" transform="translate(-178.038 -169.415)" fill="#fff"/>
    </g>
    <g id="Group_7" data-name="Group 7" transform="translate(91.462 150.186)">
      <path id="Path_181" data-name="Path 181" d="M195.749,358.022a11.442,11.442,0,0,1,6.31,3.883,10.954,10.954,0,0,1,2.187,6.968,11.261,11.261,0,0,1-3.884,9.072q-3.884,3.3-10.753,3.295a33.722,33.722,0,0,1-5.889-.533,38,38,0,0,1-5.888-1.542v-5.637a27.294,27.294,0,0,0,5.636,2.216,21.651,21.651,0,0,0,5.524.729q4.654,0,7.151-2.1a7.48,7.48,0,0,0,2.5-6.058,7.246,7.246,0,0,0-2.5-5.79,10.023,10.023,0,0,0-6.758-2.145h-4.319v-4.655h4.319a9.65,9.65,0,0,0,6.084-1.71,5.708,5.708,0,0,0,2.187-4.767,6.129,6.129,0,0,0-2.032-4.949,8.7,8.7,0,0,0-5.79-1.724,24.983,24.983,0,0,0-5.16.561,36.613,36.613,0,0,0-5.58,1.682V339.6q3.393-.9,6.043-1.347a28.588,28.588,0,0,1,4.7-.448q6.112,0,9.772,3.07a10.1,10.1,0,0,1,3.66,8.146,8.665,8.665,0,0,1-1.921,5.749A10.457,10.457,0,0,1,195.749,358.022Z" transform="translate(-177.831 -337.804)" fill="#fff"/>
    </g>
    <g id="Group_8" data-name="Group 8" transform="translate(159.991 82.606)">
      <path id="Path_182" data-name="Path 182" d="M268.557,292.3h19.236v4.767H262.36V292.3q5.242-5.525,9.169-9.759t5.412-5.973a28.637,28.637,0,0,0,3.786-5.538,10.2,10.2,0,0,0,.982-4.332,7.283,7.283,0,0,0-2.062-5.5,7.791,7.791,0,0,0-5.65-1.991,17.107,17.107,0,0,0-5.356.925,30.087,30.087,0,0,0-5.944,2.8v-5.72a30.574,30.574,0,0,1,5.678-2.075,22.566,22.566,0,0,1,5.51-.7q6.141,0,9.885,3.267a10.822,10.822,0,0,1,3.743,8.566,12.708,12.708,0,0,1-1.248,5.384,26.607,26.607,0,0,1-4.052,5.945q-1.57,1.823-4.556,5.047T268.557,292.3Z" transform="translate(-262.36 -254.445)" fill="#fff"/>
    </g>
    <g id="Group_9" data-name="Group 9" transform="translate(23.601 82.606)">
      <path id="Path_183" data-name="Path 183" d="M97.182,296.2v-5.216a15.43,15.43,0,0,0,3.758,1.584,15.586,15.586,0,0,0,4.15.547,9.224,9.224,0,0,0,8.146-4.052Q116,285.01,116,277.13a9.922,9.922,0,0,1-3.7,4.3,10.044,10.044,0,0,1-5.467,1.5q-6.057,0-9.38-3.73t-3.323-10.571q0-6.758,3.407-10.474t9.631-3.716q7.292,0,10.684,5.244t3.394,16.488q0,10.571-4.08,16.137t-11.847,5.566a20.082,20.082,0,0,1-4.122-.435A21.948,21.948,0,0,1,97.182,296.2Zm10.1-17.694a6.841,6.841,0,0,0,5.678-2.608,13.63,13.63,0,0,0,0-14.413,6.839,6.839,0,0,0-5.678-2.608,6.7,6.7,0,0,0-5.664,2.482q-1.907,2.482-1.907,7.333,0,4.879,1.893,7.347A6.708,6.708,0,0,0,107.277,278.5Z" transform="translate(-94.126 -254.445)" fill="#fff"/>
    </g>
  </g>
</svg>
